<svg xmlns="http://www.w3.org/2000/svg" viewBox="0 0 512 512">
  <defs>
    <linearGradient id="bgGrad" x1="0%" y1="0%" x2="100%" y2="100%">
      <stop offset="0%" style="stop-color:#6366f1"/>
      <stop offset="100%" style="stop-color:#8b5cf6"/>
    </linearGradient>
  </defs>
  <!-- Background circle -->
  <circle cx="256" cy="256" r="240" fill="url(#bgGrad)"/>
  <!-- Llama face outline -->
  <ellipse cx="256" cy="280" rx="120" ry="140" fill="#f5f5f5"/>
  <!-- Ears -->
  <ellipse cx="160" cy="140" rx="35" ry="70" fill="#f5f5f5" transform="rotate(-20 160 140)"/>
  <ellipse cx="352" cy="140" rx="35" ry="70" fill="#f5f5f5" transform="rotate(20 352 140)"/>
  <ellipse cx="160" cy="140" rx="20" ry="50" fill="#d4c4b0" transform="rotate(-20 160 140)"/>
  <ellipse cx="352" cy="140" rx="20" ry="50" fill="#d4c4b0" transform="rotate(20 352 140)"/>
  <!-- Eyes -->
  <circle cx="200" cy="250" r="25" fill="#1a1a1a"/>
  <circle cx="312" cy="250" r="25" fill="#1a1a1a"/>
  <circle cx="208" cy="242" r="8" fill="white"/>
  <circle cx="320" cy="242" r="8" fill="white"/>
  <!-- Nose -->
  <ellipse cx="256" cy="320" rx="30" ry="20" fill="#d4c4b0"/>
  <!-- Chat bubble -->
  <path d="M380 380 Q380 340 420 340 L440 340 Q470 340 470 370 L470 400 Q470 430 440 430 L410 430 L390 460 L395 430 L380 430 Q350 430 350 400 L350 370 Q350 340 380 340 Z" fill="white" opacity="0.95"/>
  <!-- Chat dots -->
  <circle cx="390" cy="385" r="8" fill="#6366f1"/>
  <circle cx="415" cy="385" r="8" fill="#6366f1"/>
  <circle cx="440" cy="385" r="8" fill="#6366f1"/>
</svg>
